<?xml version="1.0" encoding="UTF-8"?>
<svg version="1.1" xmlns="http://www.w3.org/2000/svg" width="1024" height="1024">
<path d="M0 0 C0.03077929 27.64582779 0.05102612 55.29165746 0.0625 82.9375 C0.06315145 84.46256873 0.06315145 84.46256873 0.06381607 86.01844692 C0.08482582 136.55587198 0.10037897 187.09039905 -0.5 237.625 C-0.51195782 238.63253704 -0.52391563 239.64007408 -0.53623581 240.67814255 C-0.67348075 252.11901977 -0.82520276 263.55963322 -1 275 C-14.47858118 277.4527986 -27.95725967 279.90506176 -41.43604851 282.35671902 C-47.70106211 283.49627818 -53.96604727 284.63599314 -60.23095703 285.77612305 C-99.06265344 292.84279139 -137.90263198 299.86201145 -176.7533741 306.82320595 C-197.55523895 310.55076889 -218.34454104 314.34240536 -239.125 318.1875 C-320.0978474 333.16825952 -401.10662957 347.95372174 -699.9140625 402.13671875 C-700.74710026 402.28702734 -701.58013802 402.43733593 -702.43841934 402.59219933 C-709.89849541 403.93822627 -717.35865724 405.28376564 -724.81949043 406.62559032 C-737.90288723 408.97897838 -750.98026393 411.35968358 -764.046875 413.8046875 C-766.41072114 414.24546832 -768.77457191 414.68622427 -771.13842773 415.12695312 C-775.42611711 415.92675735 -779.71178016 416.7363395 -783.99633789 417.55273438 C-785.83734219 417.8974568 -787.67840277 418.2418789 -789.51953125 418.5859375 C-790.34664612 418.74657684 -791.17376099 418.90721619 -792.02593994 419.07272339 C-797.65914104 420.11361965 -797.65914104 420.11361965 -801 419 C-801.73266602 417.12548828 -801.73266602 417.12548828 -802.25390625 414.5703125 C-802.46265381 413.57725098 -802.67140137 412.58418945 -802.88647461 411.56103516 C-803.10956299 410.42714355 -803.33265137 409.29325195 -803.5625 408.125 C-803.94257202 406.27140869 -803.94257202 406.27140869 -804.33032227 404.38037109 C-805.07479332 400.73635054 -805.79859467 397.08845853 -806.51818848 393.43945312 C-807.01272047 390.93559515 -807.5112828 388.43256697 -808.01074219 385.9296875 C-811.06051746 370.63017056 -814.03636366 355.31640298 -817 340 C-817.13541451 339.30026314 -817.27082901 338.60052628 -817.41034698 337.87958527 C-825.51344196 296.00288105 -833.52077783 254.10832225 -841.43261719 212.19506836 C-841.57141233 211.46001163 -841.71020748 210.72495489 -841.85320854 209.96762371 C-842.52073597 206.4317084 -843.18730374 202.89561784 -843.85171509 199.3591156 C-844.97148747 193.40419389 -846.10163545 187.45199728 -847.27978516 181.50830078 C-847.47047073 180.53828629 -847.66115631 179.56827179 -847.85762024 178.56886292 C-848.19928462 176.8372177 -848.54604368 175.10656415 -848.89958191 173.37730408 C-849.79446365 168.82530255 -850.15799503 164.64028698 -850 160 C-843.95674737 158.1265864 -837.86589603 156.96541483 -831.64453125 155.83984375 C-829.16332052 155.38392247 -826.68212001 154.92794552 -824.20092773 154.47192383 C-822.83432187 154.22193498 -821.46769327 153.97207037 -820.1010437 153.72232056 C-812.36480456 152.30770531 -804.6315354 150.87698406 -796.8984375 149.4453125 C-796.02270269 149.28324373 -795.14696789 149.12117496 -794.24469566 148.95419502 C-765.5147765 143.6337237 -736.81194006 138.1679652 -708.1052928 132.72362757 C-705.95728559 132.31625239 -703.80927309 131.90890515 -701.6612587 131.50156784 C-697.4594707 130.70476362 -693.25768856 129.90792851 -689.0559082 129.11108398 C-688.36976873 128.98096212 -687.68362926 128.85084025 -686.97669768 128.7167753 C-684.90906562 128.32466093 -682.84143444 127.93254191 -680.77380371 127.54042053 C-680.09585192 127.41184943 -679.41790013 127.28327833 -678.71940434 127.15081114 C-675.320604 126.50622659 -671.92181728 125.86157035 -668.52305603 125.21677971 C-650.96777221 121.88632397 -633.4106151 118.56595065 -615.85125732 115.25703239 C-597.03880691 111.71195207 -578.23159713 108.14258774 -559.43392944 104.51989746 C-535.08330855 99.82764181 -510.72388333 95.18207347 -486.359375 90.5625 C-485.10322451 90.32432808 -483.84707401 90.08615616 -482.55285835 89.84076691 C-469.93834148 87.44925473 -457.32349552 85.05948381 -444.70826435 82.67174244 C-418.54730831 77.71980102 -392.39185063 72.74116608 -366.24699402 67.70487976 C-343.64368444 63.35089173 -321.03397168 59.03063728 -298.42316818 54.71575546 C-294.91679424 54.04662155 -291.41043796 53.37739512 -287.90408325 52.7081604 C-218.84483024 39.52794759 -149.78367802 26.35638636 -80.68359375 13.39160156 C-78.14299772 12.91487682 -75.60240239 12.43814839 -73.06180954 11.96140671 C-71.41854969 11.65306055 -69.77528247 11.34475369 -68.1320076 11.03648758 C-57.48321402 9.03835889 -46.83933893 7.01646862 -36.19921875 4.97265625 C-32.81183762 4.32512234 -29.42432542 3.67828009 -26.03674316 3.03179932 C-23.05160832 2.45938099 -20.06829313 1.87811289 -17.08496094 1.29638672 C-15.35751572 0.9666304 -13.62998337 0.63733003 -11.90234375 0.30859375 C-11.14338303 0.15745621 -10.3844223 0.00631866 -9.60246277 -0.1493988 C-6.03879898 -0.81724607 -3.46448423 -1.02866581 0 0 Z " fill="#2A75C4" transform="translate(944,312)"/>
<path d="M0 0 C0.67390778 -0.00133942 1.34781555 -0.00267883 2.04214478 -0.00405884 C28.02345076 0.00717423 28.02345076 0.00717423 34.5448761 4.42304993 C35.8125 6.25 35.8125 6.25 35.71769714 9.02458191 C35.4978566 10.14850845 35.27801605 11.272435 35.05151367 12.43041992 C34.81103806 13.70572067 34.57056244 14.98102142 34.32279968 16.29496765 C34.04215756 17.69016182 33.7613771 19.08532816 33.48046875 20.48046875 C33.20543119 21.91400565 32.93212506 23.34787572 32.66047668 24.78205872 C31.94017426 28.56471477 31.2006215 32.34333037 30.45574951 36.12121582 C29.26971331 42.14908163 28.10921233 48.18184367 26.95549965 54.21596718 C26.55065916 56.31558413 26.13551376 58.41296362 25.71903992 60.51029968 C23.43734974 71.40931456 23.43734974 71.40931456 24.6875 82.3125 C24.83161935 85.69930481 24.45345646 86.16646117 22.375 88.6875 C19.41638922 91.79608644 16.23699378 94.63605529 12.96875 97.4140625 C9.85523553 100.06506214 6.8309593 102.81390127 3.79296875 105.55078125 C-0.55371033 109.28018046 -0.55371033 109.28018046 -3.23828125 109.15234375 C-5.93285859 107.90495424 -6.30628599 106.53881126 -7.375 103.8125 C-7.69855469 103.00941406 -8.02210938 102.20632813 -8.35546875 101.37890625 C-8.63003906 100.67636719 -8.90460938 99.97382812 -9.1875 99.25 C-9.5175 98.59 -9.8475 97.93 -10.1875 97.25 C-10.80625 97.83007812 -10.80625 97.83007812 -11.4375 98.421875 C-20.42941363 106.53065426 -28.91572314 108.82904607 -40.87109375 108.5859375 C-48.51656519 108.18502654 -53.81526562 104.99713561 -59.0625 99.5625 C-68.51373103 87.79304249 -68.14827088 72.56957451 -67.1875 58.25 C-66.47289003 53.0580498 -64.95141099 48.17618563 -63.1875 43.25 C-62.836875 42.20714844 -62.48625 41.16429687 -62.125 40.08984375 C-56.5783092 25.16385287 -45.30830439 12.53640739 -31.1875 5.25 C-26.91308479 3.65132041 -22.60748829 2.37773364 -18.1875 1.25 C-17.59984863 1.0742041 -17.01219727 0.8984082 -16.40673828 0.71728516 C-11.07046779 -0.40632559 -5.4362545 0.0062862 0 0 Z " fill="#FDFDFE" transform="translate(361.1875,505.75)"/>
<path d="M0 0 C8.7520581 7.31759214 12.81942975 16.32101645 13.97265625 27.671875 C14.50773218 48.23740189 7.27775505 68.49321403 -6.125 84.0625 C-15.99702665 94.41172431 -28.82494332 100.68905629 -43.1953125 101.453125 C-55.66705052 101.68161927 -66.52390942 100.72305523 -76.375 92.25 C-85.88131796 82.93192596 -87.76226974 71.77512058 -87.9375 59 C-87.79794578 39.42434876 -81.08057939 21.93947945 -67.19921875 7.9140625 C-50.16808866 -8.15126354 -20.20799961 -13.798746 0 0 Z " fill="#FDFDFE" transform="translate(657.375,512.75)"/>
<path d="M0 0 C26.73 0 53.46 0 81 0 C82.24832526 3.74497577 81.58070169 5.40895685 80.56640625 9.19921875 C80.27967041 10.28807373 79.99293457 11.37692871 79.69750977 12.4987793 C79.32295654 13.88105713 78.94840332 15.26333496 78.5625 16.6875 C77.386875 21.080625 76.21125 25.47375 75 30 C60.48 30 45.96 30 31 30 C30.67 32.97 30.34 35.94 30 39 C29.01 43.95 28.02 48.9 27 54 C38.22 54 49.44 54 61 54 C59 68 59 68 56 81 C44.78 81 33.56 81 22 81 C21.34 85.95 20.68 90.9 20 96 C19.01 100.62 18.02 105.24 17 110 C32.84 110 48.68 110 65 110 C58.53846154 137.46153846 58.53846154 137.46153846 57 139 C54.44410112 139.09506052 51.91532028 139.12556761 49.35913086 139.11352539 C48.15922264 139.11374443 48.15922264 139.11374443 46.93507385 139.1139679 C44.27830335 139.11326855 41.62160207 139.10547518 38.96484375 139.09765625 C37.12781309 139.09579215 35.29078194 139.09436821 33.45375061 139.09336853 C28.60890338 139.08954275 23.76408592 139.07971196 18.91925049 139.06866455 C13.97937422 139.05845172 9.03949315 139.05387119 4.09960938 139.04882812 C-5.60027353 139.03808974 -15.30013429 139.0210126 -25 139 C-23.49832509 128.73427973 -21.68457895 118.54154283 -19.8046875 108.33984375 C-19.4924809 106.63776199 -19.18044785 104.93564839 -18.86857605 103.23350525 C-18.211212 99.64756271 -17.55274575 96.06182518 -16.89334106 92.47625732 C-15.87036863 86.91370112 -14.84983661 81.3506991 -13.82983398 75.78759766 C-13.49034578 73.93615638 -13.150853 72.08471595 -12.81135559 70.23327637 C-12.64431437 69.32231705 -12.47727314 68.41135773 -12.30517006 67.47279358 C-11.80253041 64.73219342 -11.29964253 61.99163893 -10.79667664 59.25109863 C-7.17303741 39.50520567 -3.5848014 19.7529873 0 0 Z " fill="#FCFDFE" transform="translate(175,473)"/>
<path d="M0 0 C1.58272601 1.58272601 1.34735747 3.38034003 1.5625 5.5625 C1.64628906 6.38878906 1.73007812 7.21507812 1.81640625 8.06640625 C1.87699219 8.70449219 1.93757813 9.34257813 2 10 C2.57105469 9.61328125 3.14210938 9.2265625 3.73046875 8.828125 C15.48675465 1.27718779 27.22112015 -1.40659398 41 0 C47.85930225 1.55734158 52.15639074 4.11447332 56 10 C62.15753011 23.0620079 56.06863434 40.41968573 53.3125 53.75 C52.849701 56.03788997 52.38827957 58.32605902 51.92822266 60.61450195 C51.03059609 65.07376968 50.12706183 69.53176611 49.21826172 73.98876953 C47.71523567 81.37803132 46.28334433 88.77965938 44.875 96.1875 C44.25625 99.425625 43.6375 102.66375 43 106 C31.45 106 19.9 106 8 106 C9.26735499 98.87755851 10.53492035 91.75515967 11.8044281 84.63310242 C12.39572134 81.31555767 12.98665067 77.9979491 13.57666016 74.68017578 C14.2558393 70.86212641 14.93638656 67.04432298 15.6171875 63.2265625 C15.92981033 61.46658432 15.92981033 61.46658432 16.24874878 59.67105103 C17.30057527 53.78034612 18.39565623 47.9061373 19.62376404 42.04942322 C20.123368 39.3279929 20.23123115 36.70051349 20.1875 33.9375 C20.18105469 33.01839844 20.17460937 32.09929688 20.16796875 31.15234375 C20.23608895 29.0194396 20.23608895 29.0194396 19 28 C12.90309284 27.48331295 9.84930969 27.9221714 5 32 C-2.4399448 38.80223525 -2.7778441 52.67672011 -4.4453125 62.1328125 C-4.66065643 63.33187225 -4.87600037 64.53093201 -5.09786987 65.7663269 C-5.77744079 69.55187255 -6.4517387 73.33832749 -7.125 77.125 C-7.80577058 80.94730823 -8.4877556 84.7693802 -9.17355347 88.59078979 C-9.598394 90.95851452 -10.02030027 93.32676798 -10.43899536 95.69558716 C-10.62944427 96.75784515 -10.81989319 97.82010315 -11.01611328 98.91455078 C-11.18249298 99.85098419 -11.34887268 100.7874176 -11.52029419 101.75222778 C-12 104 -12 104 -13 106 C-24.55 106 -36.1 106 -48 106 C-44.87709104 87.45772802 -41.5142286 68.9843871 -37.95654297 50.52172852 C-36.39823585 42.42196696 -34.85588381 34.32228636 -33.4453125 26.1953125 C-33.32967957 25.53147049 -33.21404663 24.86762848 -33.09490967 24.18367004 C-32.56845948 21.15200614 -32.05132096 18.11915009 -31.546875 15.08374023 C-31.36898438 14.04677002 -31.19109375 13.0097998 -31.0078125 11.94140625 C-30.85973145 11.05138916 -30.71165039 10.16137207 -30.55908203 9.24438477 C-30 7 -30 7 -28 4 C-25.84863281 3.29223633 -25.84863281 3.29223633 -23.203125 2.83203125 C-21.76453125 2.57583008 -21.76453125 2.57583008 -20.296875 2.31445312 C-19.29140625 2.14880859 -18.2859375 1.98316406 -17.25 1.8125 C-16.26 1.63525391 -15.27 1.45800781 -14.25 1.27539062 C-4.81234218 -0.35853543 -4.81234218 -0.35853543 0 0 Z " fill="#FDFDFE" transform="translate(438,506)"/>
<path d="M0 0 C-0.55307935 3.64732143 -1.11952824 7.29247052 -1.6875 10.9375 C-1.83638672 11.92041016 -1.98527344 12.90332031 -2.13867188 13.91601562 C-3.5076762 22.64006279 -5.22518393 31.27998338 -6.97412109 39.93458557 C-9.23218193 51.10933637 -11.39227441 62.30208854 -13.53979492 73.49853516 C-14.19659727 76.92242376 -14.85503799 80.34599454 -15.51367188 83.76953125 C-15.94019863 85.98956519 -16.36663435 88.20961661 -16.79296875 90.4296875 C-16.9856987 91.43192352 -17.17842865 92.43415955 -17.3769989 93.46676636 C-17.92204255 96.31042433 -18.46124069 99.1551457 -19 102 C-19.19050934 102.98413879 -19.38101868 103.96827759 -19.57730103 104.98223877 C-19.75973358 105.94474548 -19.94216614 106.9072522 -20.13012695 107.89892578 C-20.29438675 108.75527618 -20.45864655 109.61162659 -20.62788391 110.493927 C-21.20233825 114.36267806 -21.12801178 118.09564059 -21 122 C-18.03 122 -15.06 122 -12 122 C-12 130.25 -12 138.5 -12 147 C-39.29607084 152.55174322 -39.29607084 152.55174322 -51.98828125 145.96875 C-56.08035795 142.9631552 -58.07863875 138.87351608 -59 134 C-59.12818036 128.86536444 -58.85672526 124.18006751 -57.9609375 119.10546875 C-57.84361771 118.43247238 -57.72629791 117.75947601 -57.60542297 117.06608582 C-57.20272831 114.77183841 -56.78922584 112.4796918 -56.375 110.1875 C-56.07771818 108.51711879 -55.7806062 106.84670734 -55.48364258 105.17626953 C-54.34033514 98.78089693 -53.17149545 92.3902614 -52 86 C-51.87045174 85.29312798 -51.74090347 84.58625595 -51.6074295 83.85796356 C-49.47375838 72.21903724 -47.32420834 60.5830949 -45.16480255 48.94891739 C-44.68766707 46.37590093 -44.21183205 43.80264676 -43.73626709 41.2293396 C-42.97677654 37.12191333 -42.21265321 33.01537361 -41.44508934 28.90944862 C-41.15892328 27.3751728 -40.87418735 25.84062946 -40.59096718 24.30580711 C-40.198379 22.18014771 -39.80042115 20.05556006 -39.40112305 17.93115234 C-39.17796921 16.73275726 -38.95481537 15.53436218 -38.72489929 14.2996521 C-38.02202849 11.10027096 -37.09638985 8.08431038 -36 5 C-32.1605119 4.27875323 -28.3193788 3.56707381 -24.4765625 2.86376953 C-22.53554741 2.5065422 -20.59588124 2.14201019 -18.65625 1.77734375 C-12.34562084 0.62696864 -6.41723276 -0.32410266 0 0 Z " fill="#FCFDFE" transform="translate(304,465)"/>
<path d="M0 0 C0.92039062 -0.01160156 1.84078125 -0.02320313 2.7890625 -0.03515625 C12.16606561 0.00446489 21.72367519 2.07955231 29 8.375 C30.21875 10.53515625 30.21875 10.53515625 31 12.375 C30.25234375 13.24382813 29.5046875 14.11265625 28.734375 15.0078125 C27.73941344 16.17172979 26.74463132 17.33580049 25.75 18.5 C25.01330078 19.35464844 25.01330078 19.35464844 24.26171875 20.2265625 C21.21951619 23.79608017 18.52381683 27.4210203 16 31.375 C13.72131414 30.23565707 11.5456311 29.09372402 9.375 27.75 C4.94215801 25.94402734 0.70623267 25.28453146 -4 26.375 C-12.97113775 32.54905298 -17.30839148 43.76816826 -19.5703125 54.15625 C-20.65502051 62.28169913 -21.58596537 71.83878072 -18 79.375 C-16.14413185 80.34945674 -16.14413185 80.34945674 -14 80.375 C-13.360625 80.46523438 -12.72125 80.55546875 -12.0625 80.6484375 C-4.90424528 81.00092732 0.59634862 78.30760311 7 75.375 C7.99 75.045 8.98 74.715 10 74.375 C18 91.60904255 18 91.60904255 18 96.375 C3.04223513 106.28271564 -13.08139035 110.15595715 -31 108.375 C-39.79183346 106.48039182 -47.64456191 102.18637753 -52.8125 94.6875 C-60.82449128 80.20636712 -59.62017189 61.85027253 -55.2578125 46.34375 C-51.93280203 35.50980145 -47.27243974 26.13336063 -40 17.375 C-39.45730469 16.71886719 -38.91460938 16.06273437 -38.35546875 15.38671875 C-28.29145809 4.34324234 -14.55250371 -0.18343492 0 0 Z " fill="#FCFDFE" transform="translate(551,505.625)"/>
<path d="M0 0 C3.57160699 3.57160699 4.16147422 7.60358539 4.3125 12.5 C4.16574993 28.09743581 0.14556755 46.82531893 -10 59 C-12.73353973 61.38099989 -13.8161311 61.97044964 -17.5 62.5625 C-21 62 -21 62 -23.1875 59.48046875 C-25.29333251 55.43672572 -25.61080954 52.20182178 -25.5 47.75 C-25.48936523 46.97076172 -25.47873047 46.19152344 -25.46777344 45.38867188 C-24.97609455 29.86655627 -21.17508068 12.37113472 -10 1 C-6.35233996 -1.26309544 -4.14708684 -1.23530246 0 0 Z " fill="#266DBF" transform="translate(631,529)"/>
<path d="M0 0 C1.8871875 0.0309375 1.8871875 0.0309375 3.8125 0.0625 C2.86535569 8.12146512 1.44702891 16.05904923 -0.03393555 24.03466797 C-0.34447008 25.7189396 -0.64981734 27.40417595 -0.94995117 29.09033203 C-1.38837726 31.55213406 -1.84285797 34.01050901 -2.30078125 36.46875 C-2.49478264 37.58316467 -2.49478264 37.58316467 -2.69270325 38.72009277 C-3.90664318 45.06760574 -6.00244791 50.75933699 -10.5 55.5 C-13.85031549 57.44785784 -16.31701979 57.99212763 -20.1875 58.0625 C-23.40379947 56.3697108 -24.02476711 55.55069868 -25.1875 52.0625 C-26.1189986 35.76127448 -24.37800816 18.43344041 -13.05859375 5.66015625 C-8.88789538 1.90422346 -5.73645499 -0.09404025 0 0 Z " fill="#266FC1" transform="translate(355.1875,529.9375)"/>
<path d="M0 0 C5.61 0 11.22 0 17 0 C18.32 2.97 19.64 5.94 21 9 C21.66 8.01 22.32 7.02 23 6 C22.67 5.34 22.34 4.68 22 4 C22.66 4 23.32 4 24 4 C24.33 2.68 24.66 1.36 25 0 C27.475 0.495 27.475 0.495 30 1 C30.05382106 3.62527189 30.09358313 6.24944713 30.125 8.875 C30.14175781 9.62136719 30.15851562 10.36773438 30.17578125 11.13671875 C30.1933959 13.09194461 30.10320189 15.04742021 30 17 C29.34 17.66 28.68 18.32 28 19 C27.01 18.34 26.02 17.68 25 17 C24.8125 14.375 24.8125 14.375 25 12 C24.34 13.65 23.68 15.3 23 17 C22.21625 16.95875 21.4325 16.9175 20.625 16.875 C17.83883881 16.71271266 17.83883881 16.71271266 16 19 C16 18.34 16 17.68 16 17 C15.01 17 14.02 17 13 17 C13 12.38 13 7.76 13 3 C11.35 3 9.7 3 8 3 C8.03480469 3.98742187 8.06960938 4.97484375 8.10546875 5.9921875 C8.13253906 7.27351562 8.15960937 8.55484375 8.1875 9.875 C8.22230469 11.15117188 8.25710938 12.42734375 8.29296875 13.7421875 C8.19628906 14.81726563 8.09960938 15.89234375 8 17 C7.01 17.66 6.02 18.32 5 19 C4.08602176 13.31302429 4.08602176 8.68697571 5 3 C4.34 3 3.68 3 3 3 C2.67 3.66 2.34 4.32 2 5 C2 4.34 2 3.68 2 3 C1.01 2.67 0.02 2.34 -1 2 C-0.67 1.34 -0.34 0.68 0 0 Z M17 9 C17 11.31 17 13.62 17 16 C17.66 14.68 18.32 13.36 19 12 C18.34 11.01 17.68 10.02 17 9 Z " fill="#265CA0" transform="translate(912,605)"/>
<path d="M0 0 C1.25186288 4.47093887 2.3541988 9.00279498 1.53515625 13.62109375 C0.84219982 17.99632959 0.80918319 22.26453397 0.8125 26.6875 C0.81185547 27.57147461 0.81121094 28.45544922 0.81054688 29.36621094 C0.86200563 35.74007947 1.40869829 41.80528977 3 48 C0.6020433 45.13559145 -0.48740082 42.91205724 -1.1875 39.25 C-1.34605469 38.45078125 -1.50460937 37.6515625 -1.66796875 36.828125 C-1.77753906 36.22484375 -1.88710938 35.6215625 -2 35 C-5.27773504 35.75150023 -5.27773504 35.75150023 -7 39 C-6.48324998 30.45627105 -5.24464855 22.24931305 -3.5 13.875 C-3.16162109 12.19277344 -3.16162109 12.19277344 -2.81640625 10.4765625 C-1.14580676 2.29161352 -1.14580676 2.29161352 0 0 Z " fill="#1851B0" transform="translate(493,548)"/>
<path d="M0 0 C0.33 0 0.66 0 1 0 C0.97905273 0.74983154 0.95810547 1.49966309 0.93652344 2.2722168 C-0.12006085 26.8817919 -0.12006085 26.8817919 11 48 C11.66 48.99 12.32 49.98 13 51 C9.66227007 49.59844241 7.98250943 48.0490314 5.875 45.125 C5.37742187 44.44695313 4.87984375 43.76890625 4.3671875 43.0703125 C3.06764939 41.1024405 2.00360373 39.13146316 1 37 C0.95101563 38.14339844 0.90203125 39.28679688 0.8515625 40.46484375 C0.77654811 41.95575473 0.70099972 43.44663892 0.625 44.9375 C0.5940625 45.69224609 0.563125 46.44699219 0.53125 47.22460938 C0.4273685 49.15507395 0.22104386 51.07942081 0 53 C-0.99 53.495 -0.99 53.495 -2 54 C-2.1039059 40.86629476 -2.09720607 27.75015696 -1.5625 14.625 C-1.52326416 13.61630859 -1.48402832 12.60761719 -1.44360352 11.56835938 C-1.40162842 10.63056641 -1.35965332 9.69277344 -1.31640625 8.7265625 C-1.27974854 7.90752441 -1.24309082 7.08848633 -1.20532227 6.24462891 C-1.00639574 4.0699197 -0.5912802 2.09878919 0 0 Z " fill="#0A40A9" transform="translate(294,559)"/>
<path d="M0 0 C1.65 0.33 3.3 0.66 5 1 C5.05382106 3.62527189 5.09358313 6.24944713 5.125 8.875 C5.14175781 9.62136719 5.15851562 10.36773438 5.17578125 11.13671875 C5.1933959 13.09194461 5.10320189 15.04742021 5 17 C4.34 17.66 3.68 18.32 3 19 C2.01 18.34 1.02 17.68 0 17 C-0.1875 14.375 -0.1875 14.375 0 12 C-0.66 12.66 -1.32 13.32 -2 14 C-2.66 13.67 -3.32 13.34 -4 13 C-3.4740625 11.329375 -3.4740625 11.329375 -2.9375 9.625 C-1.62760669 6.19735524 -1.62760669 6.19735524 -3 4 C-2.34 4 -1.68 4 -1 4 C-0.67 2.68 -0.34 1.36 0 0 Z " fill="#3A72B0" transform="translate(937,605)"/>
<path d="M0 0 C0.33 0 0.66 0 1 0 C1 1.65 1 3.3 1 5 C16.18 5 31.36 5 47 5 C47 5.66 47 6.32 47 7 C31.16 7 15.32 7 -1 7 C-0.67 4.69 -0.34 2.38 0 0 Z " fill="#0A47AE" transform="translate(193,576)"/>
<path d="M0 0 C1.8871875 0.0309375 1.8871875 0.0309375 3.8125 0.0625 C3.05624431 7.15565686 1.67827754 14.07714264 0.25 21.0625 C0.01603516 22.21878906 -0.21792969 23.37507812 -0.45898438 24.56640625 C-1.03252267 27.39898314 -1.60876068 30.23098202 -2.1875 33.0625 C-2.5175 33.0625 -2.8475 33.0625 -3.1875 33.0625 C-2.76456486 22.46797474 -0.50511729 12.36781225 1.8125 2.0625 C-1.4875 2.3925 -4.7875 2.7225 -8.1875 3.0625 C-6.45706736 -0.39836529 -3.47359009 -0.0569441 0 0 Z " fill="#0D3CA7" transform="translate(355.1875,529.9375)"/>
<path d="M0 0 C0.99 0 1.98 0 3 0 C4.32 3.63 5.64 7.26 7 11 C7.33 11 7.66 11 8 11 C8 12.65 8 14.3 8 16 C6.35 15.67 4.7 15.34 3 15 C2.67 12.03 2.34 9.06 2 6 C1.67 8.97 1.34 11.94 1 15 C0.67 15 0.34 15 0 15 C0 10.05 0 5.1 0 0 Z " fill="#1F4E8F" transform="translate(927,606)"/>
<path d="M0 0 C1.95216435 1.95216435 2.84826645 3.53199953 4 6 C6.1385485 3.8614515 6.42655063 2.86724686 7 0 C10.125 6.625 10.125 6.625 9 10 C8.01577854 12.00781177 7.01765927 14.00892752 6 16 C2.11295913 11.74276476 0 5.72456601 0 0 Z " fill="#1852B0" transform="translate(564,586)"/>
<path d="M0 0 C5.61 0 11.22 0 17 0 C16.01 0.495 16.01 0.495 15 1 C15.495 1.78375 15.99 2.5675 16.5 3.375 C18.39022573 7.94304551 18.67823021 12.10264937 18 17 C17.34 17.66 16.68 18.32 16 19 C16 18.34 16 17.68 16 17 C15.01 17 14.02 17 13 17 C13.01160156 16.01257813 13.02320313 15.02515625 13.03515625 14.0078125 C13.04417969 12.72648438 13.05320312 11.44515625 13.0625 10.125 C13.07410156 8.84882812 13.08570313 7.57265625 13.09765625 6.2578125 C13.23176569 3.11335348 13.23176569 3.11335348 12 1 C8.04 1 4.08 1 0 1 C0 0.67 0 0.34 0 0 Z " fill="#4684C4" transform="translate(912,605)"/>
<path d="M0 0 C2.11473305 3.62262966 2.81639264 7.28295669 3.625 11.375 C4.01558594 13.30472656 4.01558594 13.30472656 4.4140625 15.2734375 C4.9372067 18.60063459 5.11435829 21.64202482 5 25 C4.34 25 3.68 25 3 25 C1.11918875 16.60352122 -0.55048791 8.66508753 0 0 Z " fill="#2D6DB5" transform="translate(139,703)"/>
<path d="M0 0 C-1.32 0.33 -2.64 0.66 -4 1 C-4 1.66 -4 2.32 -4 3 C-11.41430591 4.83717315 -18.37685526 5.23576736 -26 5 C-22.39319097 2.89983272 -18.75919326 2.1852465 -14.6875 1.375 C-12.77517578 0.98441406 -12.77517578 0.98441406 -10.82421875 0.5859375 C-7.14526156 0.02225662 -3.71447898 -0.10571609 0 0 Z " fill="#296BB8" transform="translate(721,625)"/>
<path d="M0 0 C0 0.33 0 0.66 0 1 C-3.54004203 1.6754914 -7.08226169 2.33880798 -10.625 3 C-11.62402344 3.19078125 -12.62304688 3.3815625 -13.65234375 3.578125 C-18.49052593 4.47527136 -23.05392418 5.27009288 -28 5 C-26.68 4.67 -25.36 4.34 -24 4 C-24 3.34 -24 2.68 -24 2 C-15.96235969 -0.07422976 -8.27015524 -0.2144997 0 0 Z " fill="#4182C7" transform="translate(597,649)"/>
<path d="M0 0 C-0.66 0 -1.32 0 -2 0 C-2 0.66 -2 1.32 -2 2 C-3.65 2 -5.3 2 -7 2 C-7.33 2.66 -7.66 3.32 -8 4 C-13.49816494 5.17174007 -13.49816494 5.17174007 -16 5 C-18.26171875 3.51171875 -18.26171875 3.51171875 -20 2 C-17.41842632 1.46867611 -14.83538244 0.94965621 -12.25 0.4375 C-11.52039063 0.28603516 -10.79078125 0.13457031 -10.0390625 -0.02148438 C-6.33442927 -0.74557178 -3.60677678 -1.09817231 0 0 Z " fill="#347AC5" transform="translate(438,408)"/>
<path d="M0 0 C1.60294922 0.01353516 1.60294922 0.01353516 3.23828125 0.02734375 C4.04652344 0.03894531 4.85476563 0.05054688 5.6875 0.0625 C-0.61720733 3.44967911 -7.23161475 4.36381427 -14.3125 4.0625 C-10.52797189 -0.51877087 -5.58649249 -0.06139003 0 0 Z " fill="#2A6EBA" transform="translate(702.3125,356.9375)"/>
<path d="M0 0 C1.60294922 0.01353516 1.60294922 0.01353516 3.23828125 0.02734375 C4.04652344 0.03894531 4.85476563 0.05054688 5.6875 0.0625 C-0.52231949 3.53183577 -8.27982541 4.44264457 -15.3125 4.0625 C-10.55019628 0.00572276 -6.09468544 -0.06697457 0 0 Z " fill="#2A6DB9" transform="translate(545.3125,386.9375)"/>
<path d="M0 0 C0.66 0.33 1.32 0.66 2 1 C-1.48525764 4.89528795 -3.98483556 6.62328819 -9 8 C-11.03072476 8.82093128 -13.05349128 9.65720213 -15.0703125 10.51171875 C-17.37939664 11.09600117 -18.76492742 10.74005736 -21 10 C-20.154375 9.69707031 -19.30875 9.39414062 -18.4375 9.08203125 C-10.59080279 6.18799735 -10.59080279 6.18799735 -3.3125 2.125 C-1.6728125 1.073125 -1.6728125 1.073125 0 0 Z " fill="#1343AA" transform="translate(567,602)"/>
<path d="M0 0 C0 0.33 0 0.66 0 1 C-1.65 1 -3.3 1 -5 1 C-5 1.66 -5 2.32 -5 3 C-8.67387495 3.85298376 -12.0447393 4.10789471 -15.8125 4.0625 C-17.27623047 4.04896484 -17.27623047 4.04896484 -18.76953125 4.03515625 C-19.87361328 4.01775391 -19.87361328 4.01775391 -21 4 C-14.55014562 0.47111416 -7.25553656 -0.31545811 0 0 Z " fill="#296AB5" transform="translate(194,721)"/>
<path d="M0 0 C0.33 0 0.66 0 1 0 C1.50567729 2.56149628 2.00470132 5.12399465 2.5 7.6875 C2.64308594 8.40873047 2.78617187 9.12996094 2.93359375 9.87304688 C3.65571887 13.63841359 4.1824976 17.14473813 4 21 C3.67 19.68 3.34 18.36 3 17 C2.34 17 1.68 17 1 17 C0.09586327 13.16275828 -0.10576898 9.62497726 -0.0625 5.6875 C-0.05347656 4.61886719 -0.04445313 3.55023438 -0.03515625 2.44921875 C-0.02355469 1.64097656 -0.01195313 0.83273437 0 0 Z " fill="#2769B5" transform="translate(100,499)"/>
<path d="M0 0 C-1.32 0.33 -2.64 0.66 -4 1 C-4 1.66 -4 2.32 -4 3 C-8.40914783 4.10228696 -12.48382401 4.07654536 -17 4 C-17 3.34 -17 2.68 -17 2 C-5.47835991 -0.29612756 -5.47835991 -0.29612756 0 0 Z " fill="#2A6EBA" transform="translate(271,707)"/>
<path d="M0 0 C0.33 0.99 0.66 1.98 1 3 C1.66 3 2.32 3 3 3 C4.0712828 9.02596573 4.09945415 14.88909517 4 21 C3.67 21 3.34 21 3 21 C2.49432271 18.43850372 1.99529868 15.87600535 1.5 13.3125 C1.35691406 12.59126953 1.21382813 11.87003906 1.06640625 11.12695312 C0.34428113 7.36158641 -0.1824976 3.85526187 0 0 Z " fill="#4988CB" transform="translate(105,532)"/>
<path d="M0 0 C0 0.33 0 0.66 0 1 C-1.72807318 1.33895656 -3.45751974 1.67091525 -5.1875 2 C-6.63189453 2.2784375 -6.63189453 2.2784375 -8.10546875 2.5625 C-10.7934206 2.96877612 -13.28771019 3.07933572 -16 3 C-16 2.34 -16 1.68 -16 1 C-10.26696495 -0.57300962 -5.84340558 -1.24327778 0 0 Z " fill="#3778BF" transform="translate(256,711)"/>
<path d="M0 0 C0 0.99 0 1.98 0 3 C-5.66642551 4.22517308 -11.23708518 4.09228867 -17 4 C-13.83648131 2.21583543 -10.9462452 1.48143786 -7.375 0.875 C-6.41335938 0.70742188 -5.45171875 0.53984375 -4.4609375 0.3671875 C-2 0 -2 0 0 0 Z " fill="#2F71BC" transform="translate(433,677)"/>
<path d="M0 0 C0 0.33 0 0.66 0 1 C-1.72807318 1.33895656 -3.45751974 1.67091525 -5.1875 2 C-6.63189453 2.2784375 -6.63189453 2.2784375 -8.10546875 2.5625 C-10.7934206 2.96877612 -13.28771019 3.07933572 -16 3 C-16 2.34 -16 1.68 -16 1 C-10.26696495 -0.57300962 -5.84340558 -1.24327778 0 0 Z " fill="#377AC2" transform="translate(449,676)"/>
<path d="M0 0 C0 0.33 0 0.66 0 1 C-2.56149628 1.50567729 -5.12399465 2.00470132 -7.6875 2.5 C-8.7693457 2.71462891 -8.7693457 2.71462891 -9.87304688 2.93359375 C-13.63841359 3.65571887 -17.14473813 4.1824976 -21 4 C-17.86501708 2.14223235 -15.62528568 1.79859524 -12 2 C-12 1.34 -12 0.68 -12 0 C-7.91556885 -1.53166168 -4.20544343 -0.63081652 0 0 Z " fill="#508DCD" transform="translate(910,592)"/>
<path d="M0 0 C0.33 0 0.66 0 1 0 C1.19573608 1.43640171 1.38127816 2.87419504 1.5625 4.3125 C1.66691406 5.11300781 1.77132813 5.91351562 1.87890625 6.73828125 C2 9 2 9 1 12 C0.34 12 -0.32 12 -1 12 C-1.33 12.99 -1.66 13.98 -2 15 C-2.22577402 9.5814234 -1.46670113 5.22512279 0 0 Z " fill="#1650B1" transform="translate(394,525)"/>
<path d="M0 0 C1.85776765 3.13498292 2.20140476 5.37471432 2 9 C2.66 9 3.32 9 4 9 C4.84098656 13.01804691 5.05404945 16.01803543 4 20 C3.67 20 3.34 20 3 20 C2.49395076 17.60530271 1.99500483 15.20948283 1.5 12.8125 C1.28537109 11.80219727 1.28537109 11.80219727 1.06640625 10.77148438 C0.31930158 7.12490207 -0.17352282 3.72351043 0 0 Z " fill="#4E8AC9" transform="translate(132,673)"/>
<path d="M0 0 C-2.64 0.33 -5.28 0.66 -8 1 C-8 1.66 -8 2.32 -8 3 C-12.01804691 3.84098656 -15.01803543 4.05404945 -19 3 C-19 2.67 -19 2.34 -19 2 C-16.58525383 1.46839543 -14.16891893 0.94945234 -11.75 0.4375 C-11.06808594 0.28603516 -10.38617188 0.13457031 -9.68359375 -0.02148438 C-6.18230962 -0.75233495 -3.39701827 -1.32203546 0 0 Z " fill="#4F8CCD" transform="translate(206,452)"/>
<path d="M0 0 C0 0.33 0 0.66 0 1 C-1.72807318 1.33895656 -3.45751974 1.67091525 -5.1875 2 C-6.63189453 2.2784375 -6.63189453 2.2784375 -8.10546875 2.5625 C-10.7934206 2.96877612 -13.28771019 3.07933572 -16 3 C-15.01 2.67 -14.02 2.34 -13 2 C-13 1.34 -13 0.68 -13 0 C-8.34462607 -0.83796731 -4.62921525 -1.0161692 0 0 Z " fill="#3F80C6" transform="translate(300,703)"/>
<path d="M0 0 C-0.33 0.99 -0.66 1.98 -1 3 C-6.02125926 3.77916092 -9.97703996 4.13016601 -15 3 C-15 2.67 -15 2.34 -15 2 C-13.43883181 1.66048381 -11.87598662 1.32867456 -10.3125 1 C-9.44238281 0.814375 -8.57226562 0.62875 -7.67578125 0.4375 C-5.06287036 0.01027953 -2.64186962 -0.07616201 0 0 Z " fill="#4282C7" transform="translate(618,373)"/>
<path d="M0 0 C-0.33 0.99 -0.66 1.98 -1 3 C-6.02125926 3.77916092 -9.97703996 4.13016601 -15 3 C-15 2.67 -15 2.34 -15 2 C-13.43883181 1.66048381 -11.87598662 1.32867456 -10.3125 1 C-9.44238281 0.814375 -8.57226562 0.62875 -7.67578125 0.4375 C-5.06287036 0.01027953 -2.64186962 -0.07616201 0 0 Z " fill="#4284C9" transform="translate(812,336)"/>
<path d="M0 0 C4.29 0 8.58 0 13 0 C13 0.33 13 0.66 13 1 C1.47835991 3.29612756 1.47835991 3.29612756 -4 3 C-2.68 2.67 -1.36 2.34 0 2 C0 1.34 0 0.68 0 0 Z " fill="#4385C9" transform="translate(524,660)"/>
<path d="M0 0 C0.66 0.33 1.32 0.66 2 1 C1.8858134 2.93816735 1.75826577 4.87555099 1.625 6.8125 C1.55539062 7.89144531 1.48578125 8.97039063 1.4140625 10.08203125 C1 13 1 13 -1 16 C-1.02701408 13.89590361 -1.04640223 11.79170822 -1.0625 9.6875 C-1.07410156 8.51574219 -1.08570313 7.34398437 -1.09765625 6.13671875 C-1 3 -1 3 0 0 Z " fill="#1349AD" transform="translate(257,512)"/>
<path d="M0 0 C-1.32 0.33 -2.64 0.66 -4 1 C-4 1.66 -4 2.32 -4 3 C-7.3 3.33 -10.6 3.66 -14 4 C-9.61977332 -0.38022668 -6.01526059 -0.13988978 0 0 Z " fill="#3A7AC2" transform="translate(650,367)"/>
<path d="M0 0 C-0.99 1.485 -0.99 1.485 -2 3 C-6.67177177 3.91903707 -10.36148096 4.30458348 -15 3 C-15 2.67 -15 2.34 -15 2 C-13.43883181 1.66048381 -11.87598662 1.32867456 -10.3125 1 C-9.44238281 0.814375 -8.57226562 0.62875 -7.67578125 0.4375 C-5.06287036 0.01027953 -2.64186962 -0.07616201 0 0 Z " fill="#4283C9" transform="translate(754,347)"/>
<path d="M0 0 C-1.32 0.33 -2.64 0.66 -4 1 C-4 1.66 -4 2.32 -4 3 C-7.96 3 -11.92 3 -16 3 C-16 2.67 -16 2.34 -16 2 C-10.61972975 0.80911014 -5.54708616 -0.2919519 0 0 Z " fill="#2268B7" transform="translate(393,685)"/>
<path d="M0 0 C0.33 1.32 0.66 2.64 1 4 C1.66 4 2.32 4 3 4 C3.92844389 8.33273814 3.92844389 11.66726186 3 16 C2.67 16 2.34 16 2 16 C0.80911014 10.61972975 -0.2919519 5.54708616 0 0 Z " fill="#4683C6" transform="translate(114,579)"/>
<path d="M0 0 C-0.99 0.33 -1.98 0.66 -3 1 C-3 1.66 -3 2.32 -3 3 C-7.33273814 3.92844389 -10.66726186 3.92844389 -15 3 C-15 2.67 -15 2.34 -15 2 C-13.43883181 1.66048381 -11.87598662 1.32867456 -10.3125 1 C-9.44238281 0.814375 -8.57226562 0.62875 -7.67578125 0.4375 C-5.06287036 0.01027953 -2.64186962 -0.07616201 0 0 Z " fill="#4586CA" transform="translate(670,363)"/>
<path d="M0 0 C0.33 0 0.66 0 1 0 C1.33 3.96 1.66 7.92 2 12 C1.34 12 0.68 12 0 12 C-0.19401633 10.18818595 -0.38004375 8.37551468 -0.5625 6.5625 C-0.66691406 5.55316406 -0.77132812 4.54382813 -0.87890625 3.50390625 C-0.91886719 2.67761719 -0.95882812 1.85132813 -1 1 C-0.67 0.67 -0.34 0.34 0 0 Z " fill="#3474B9" transform="translate(142,716)"/>
<path d="M0 0 C1.32 0.33 2.64 0.66 4 1 C3.34 1 2.68 1 2 1 C1.01 4.3 0.02 7.6 -1 11 C-1.33 11 -1.66 11 -2 11 C-1.979375 10.21625 -1.95875 9.4325 -1.9375 8.625 C-1.81315937 6.01885039 -1.81315937 6.01885039 -3 4 C-2.34 4 -1.68 4 -1 4 C-0.67 2.68 -0.34 1.36 0 0 Z " fill="#3065A8" transform="translate(937,605)"/>
<path d="M0 0 C-0.639375 0.309375 -1.27875 0.61875 -1.9375 0.9375 C-3.93610821 1.8345163 -3.93610821 1.8345163 -5 3 C-6.68608966 3.07205511 -8.37500659 3.08386068 -10.0625 3.0625 C-10.98160156 3.05347656 -11.90070312 3.04445313 -12.84765625 3.03515625 C-13.55792969 3.02355469 -14.26820313 3.01195312 -15 3 C-10.26004945 -0.15996703 -5.58842581 -0.13305776 0 0 Z " fill="#2265B2" transform="translate(870,598)"/>
<path d="M0 0 C-0.99 1.485 -0.99 1.485 -2 3 C-4.31 2.67 -6.62 2.34 -9 2 C-9 2.66 -9 3.32 -9 4 C-11.31 3.67 -13.62 3.34 -16 3 C-16 2.67 -16 2.34 -16 2 C-14.27192682 1.66104344 -12.54248026 1.32908475 -10.8125 1 C-9.84957031 0.814375 -8.88664062 0.62875 -7.89453125 0.4375 C-5.2065794 0.03122388 -2.71228981 -0.07933572 0 0 Z " fill="#4C8CCE" transform="translate(293,435)"/>
<path d="M0 0 C-0.99 0.495 -0.99 0.495 -2 1 C-2 1.66 -2 2.32 -2 3 C-5.96 3 -9.92 3 -14 3 C-9.12521582 0.56260791 -5.41092828 -0.15459795 0 0 Z " fill="#4888CC" transform="translate(397,415)"/>
<path d="M0 0 C1.81248985 3.6249797 2.31888915 5.37259584 2.625 9.25 C2.69976562 10.14203125 2.77453125 11.0340625 2.8515625 11.953125 C2.92503906 12.96632813 2.92503906 12.96632813 3 14 C2.67 13.01 2.34 12.02 2 11 C1.34 11 0.68 11 0 11 C0 7.37 0 3.74 0 0 Z " fill="#2262B0" transform="translate(125,631)"/>
<path d="M0 0 C0 0.66 0 1.32 0 2 C-3.3 2.33 -6.6 2.66 -10 3 C-10 2.34 -10 1.68 -10 1 C-6.61981469 -0.04005702 -3.5219721 -0.08004482 0 0 Z " fill="#3876BC" transform="translate(821,607)"/>
<path d="M0 0 C0 0.99 0 1.98 0 3 C-3.96 3 -7.92 3 -12 3 C-12 2.67 -12 2.34 -12 2 C-10.37548581 1.66430703 -8.75037083 1.3315204 -7.125 1 C-6.22007812 0.814375 -5.31515625 0.62875 -4.3828125 0.4375 C-2 0 -2 0 0 0 Z " fill="#266BB8" transform="translate(915,589)"/>
<path d="M0 0 C0.33 0 0.66 0 1 0 C0.91253716 1.43861294 0.80434652 2.87597508 0.6875 4.3125 C0.62949219 5.11300781 0.57148438 5.91351562 0.51171875 6.73828125 C0 9 0 9 -3 12 C-2.67 9.03 -2.34 6.06 -2 3 C-1.34 3 -0.68 3 0 3 C0 2.01 0 1.02 0 0 Z " fill="#1247AB" transform="translate(350,569)"/>
<path d="M0 0 C-0.66 0 -1.32 0 -2 0 C-2 0.66 -2 1.32 -2 2 C-3.175625 1.9690625 -3.175625 1.9690625 -4.375 1.9375 C-6.98114961 1.81315937 -6.98114961 1.81315937 -9 3 C-10.67654729 2.72057545 -12.34608154 2.39171753 -14 2 C-14 1.67 -14 1.34 -14 1 C-12.41913952 0.63495397 -10.83516093 0.28339494 -9.25 -0.0625 C-8.36828125 -0.25972656 -7.4865625 -0.45695312 -6.578125 -0.66015625 C-4.01320972 -0.99825872 -2.42908361 -0.81158635 0 0 Z " fill="#4F8FD2" transform="translate(438,408)"/>
<path d="M0 0 C2.78637633 4.1795645 1.79562512 6.14668677 1 11 C-1.43769218 7.34346173 -1.23944439 5.30999899 -1 1 C-0.67 0.67 -0.34 0.34 0 0 Z " fill="#1960B1" transform="translate(118,588)"/>
<path d="M0 0 C0.66 0 1.32 0 2 0 C3.05404945 3.98196457 2.84098656 6.98195309 2 11 C1.67 11 1.34 11 1 11 C0.67 7.37 0.34 3.74 0 0 Z " fill="#4180C4" transform="translate(123,626)"/>
<path d="M0 0 C0 0.33 0 0.66 0 1 C-3.63 1.33 -7.26 1.66 -11 2 C-11 1.34 -11 0.68 -11 0 C-6.94952424 -1.35015859 -4.2079832 -0.62084998 0 0 Z " fill="#3E82C9" transform="translate(701,630)"/>
<path d="M0 0 C0 0.33 0 0.66 0 1 C-3.63 1.33 -7.26 1.66 -11 2 C-11 1.34 -11 0.68 -11 0 C-6.94952424 -1.35015859 -4.2079832 -0.62084998 0 0 Z " fill="#3F82C7" transform="translate(926,589)"/>
<path d="M0 0 C-0.33 0.99 -0.66 1.98 -1 3 C-4.3 2.67 -7.6 2.34 -11 2 C-11 1.67 -11 1.34 -11 1 C-7.27569643 0.30710631 -3.78916254 -0.11144596 0 0 Z " fill="#518CCA" transform="translate(106,470)"/>
<path d="M0 0 C4 1 4 1 4 1 Z " fill="#3F81C3" transform="translate(840,328)"/>
<path d="" fill="#3C75B4" transform="translate(0,0)"/>
<path d="" fill="#4481C2" transform="translate(0,0)"/>
<path d="M0 0 C3 1 3 1 3 1 Z " fill="#407FC2" transform="translate(421,408)"/>
<path d="M0 0 C2 1 2 1 2 1 Z " fill="#447AB7" transform="translate(144,733)"/>
<path d="M0 0 C2 1 2 1 2 1 Z " fill="#417FC3" transform="translate(185,725)"/>
<path d="M0 0 C2 1 2 1 2 1 Z " fill="#4080C4" transform="translate(273,709)"/>
<path d="M0 0 C2 1 2 1 2 1 Z " fill="#4280C1" transform="translate(286,707)"/>
<path d="M0 0 C2 1 2 1 2 1 Z " fill="#417FC4" transform="translate(308,703)"/>
<path d="M0 0 C2 1 2 1 2 1 Z " fill="#4281C2" transform="translate(374,691)"/>
<path d="M0 0 C2 1 2 1 2 1 Z " fill="#407FC3" transform="translate(403,686)"/>
<path d="M0 0 C2 1 2 1 2 1 Z " fill="#4280C2" transform="translate(462,675)"/>
<path d="" fill="#3E7EC3" transform="translate(0,0)"/>
<path d="M0 0 C2 1 2 1 2 1 Z " fill="#4381C6" transform="translate(484,671)"/>
<path d="" fill="#4683C4" transform="translate(0,0)"/>
<path d="M0 0 C2 1 2 1 2 1 Z " fill="#3D7DC2" transform="translate(537,661)"/>
<path d="M0 0 C2 1 2 1 2 1 Z " fill="#3F81C6" transform="translate(616,647)"/>
<path d="M0 0 C2 1 2 1 2 1 Z " fill="#4383C6" transform="translate(671,637)"/>
<path d="M0 0 C2 1 2 1 2 1 Z " fill="#4182C7" transform="translate(713,629)"/>
<path d="M0 0 C2 1 2 1 2 1 Z " fill="#4382C5" transform="translate(726,627)"/>
<path d="M0 0 C2 1 2 1 2 1 Z " fill="#4181C5" transform="translate(795,614)"/>
<path d="M0 0 C2 1 2 1 2 1 Z " fill="#4180C4" transform="translate(801,613)"/>
<path d="" fill="#427EB9" transform="translate(0,0)"/>
<path d="M0 0 C2 1 2 1 2 1 Z " fill="#4683C4" transform="translate(902,595)"/>
<path d="" fill="#4887C7" transform="translate(0,0)"/>
<path d="" fill="#4985C7" transform="translate(0,0)"/>
<path d="" fill="#4581C2" transform="translate(0,0)"/>
<path d="M0 0 C2 1 2 1 2 1 Z " fill="#4785C6" transform="translate(208,448)"/>
<path d="M0 0 C2 1 2 1 2 1 Z " fill="#437FC2" transform="translate(296,432)"/>
<path d="M0 0 C2 1 2 1 2 1 Z " fill="#4584C6" transform="translate(336,424)"/>
<path d="M0 0 C2 1 2 1 2 1 Z " fill="#4884C5" transform="translate(376,416)"/>
<path d="M0 0 C2 1 2 1 2 1 Z " fill="#4483C6" transform="translate(499,393)"/>
<path d="M0 0 C2 1 2 1 2 1 Z " fill="#4584C6" transform="translate(632,368)"/>
<path d="M0 0 C2 1 2 1 2 1 Z " fill="#4583C8" transform="translate(661,362)"/>
<path d="M0 0 C2 1 2 1 2 1 Z " fill="#4784C7" transform="translate(673,360)"/>
<path d="M0 0 C2 1 2 1 2 1 Z " fill="#4481C4" transform="translate(713,352)"/>
<path d="M0 0 C2 1 2 1 2 1 Z " fill="#407EC3" transform="translate(884,320)"/>
<path d="M0 0 C2 1 2 1 2 1 Z " fill="#4481C3" transform="translate(898,317)"/>
<path d="" fill="#457CBB" transform="translate(0,0)"/>
<path d="" fill="#4279B7" transform="translate(0,0)"/>
<path d="" fill="#457BB9" transform="translate(0,0)"/>
<path d="" fill="#447EBA" transform="translate(0,0)"/>
<path d="" fill="#4481C2" transform="translate(0,0)"/>
<path d="" fill="#427EBC" transform="translate(0,0)"/>
<path d="" fill="#4380C3" transform="translate(0,0)"/>
<path d="" fill="#4280C4" transform="translate(0,0)"/>
<path d="" fill="#4280C3" transform="translate(0,0)"/>
<path d="" fill="#427FC3" transform="translate(0,0)"/>
<path d="" fill="#4282C5" transform="translate(0,0)"/>
<path d="" fill="#4180C3" transform="translate(0,0)"/>
<path d="" fill="#4680BF" transform="translate(0,0)"/>
<path d="" fill="#4281C2" transform="translate(0,0)"/>
<path d="" fill="#4182C7" transform="translate(0,0)"/>
<path d="" fill="#437FC3" transform="translate(0,0)"/>
<path d="" fill="#4382C5" transform="translate(0,0)"/>
<path d="" fill="#407FC4" transform="translate(0,0)"/>
<path d="" fill="#3F7DC2" transform="translate(0,0)"/>
<path d="" fill="#3D7DC1" transform="translate(0,0)"/>
<path d="" fill="#4180C5" transform="translate(0,0)"/>
<path d="" fill="#4786C5" transform="translate(0,0)"/>
<path d="" fill="#4381C4" transform="translate(0,0)"/>
<path d="" fill="#4583C3" transform="translate(0,0)"/>
<path d="" fill="#4784C2" transform="translate(0,0)"/>
<path d="" fill="#4281C3" transform="translate(0,0)"/>
<path d="" fill="#4280C5" transform="translate(0,0)"/>
<path d="" fill="#3E7BC2" transform="translate(0,0)"/>
<path d="" fill="#4885C4" transform="translate(0,0)"/>
<path d="" fill="#417DC2" transform="translate(0,0)"/>
<path d="" fill="#4685C6" transform="translate(0,0)"/>
<path d="" fill="#4380C4" transform="translate(0,0)"/>
<path d="" fill="#4384C2" transform="translate(0,0)"/>
<path d="" fill="#407FC4" transform="translate(0,0)"/>
<path d="" fill="#4281C5" transform="translate(0,0)"/>
<path d="" fill="#4281C5" transform="translate(0,0)"/>
<path d="" fill="#3C7DC3" transform="translate(0,0)"/>
<path d="" fill="#4080C5" transform="translate(0,0)"/>
<path d="" fill="#4583C7" transform="translate(0,0)"/>
<path d="" fill="#4483C6" transform="translate(0,0)"/>
<path d="" fill="#3F7EC3" transform="translate(0,0)"/>
<path d="" fill="#4783C4" transform="translate(0,0)"/>
<path d="" fill="#4381C4" transform="translate(0,0)"/>
<path d="" fill="#4482C5" transform="translate(0,0)"/>
<path d="" fill="#437FC3" transform="translate(0,0)"/>
<path d="" fill="#4182C6" transform="translate(0,0)"/>
<path d="" fill="#3F80C5" transform="translate(0,0)"/>
<path d="" fill="#4081C3" transform="translate(0,0)"/>
<path d="" fill="#4582C6" transform="translate(0,0)"/>
<path d="" fill="#427EB9" transform="translate(0,0)"/>
<path d="" fill="#407AB4" transform="translate(0,0)"/>
<path d="" fill="#4282C7" transform="translate(0,0)"/>
<path d="" fill="#3E76AF" transform="translate(0,0)"/>
<path d="" fill="#427EC1" transform="translate(0,0)"/>
<path d="" fill="#4180C3" transform="translate(0,0)"/>
<path d="" fill="#427DBA" transform="translate(0,0)"/>
<path d="" fill="#417CBD" transform="translate(0,0)"/>
<path d="" fill="#4683C2" transform="translate(0,0)"/>
<path d="" fill="#4383C6" transform="translate(0,0)"/>
<path d="" fill="#4485C6" transform="translate(0,0)"/>
<path d="" fill="#4480BF" transform="translate(0,0)"/>
<path d="" fill="#407EBE" transform="translate(0,0)"/>
<path d="" fill="#4181C2" transform="translate(0,0)"/>
<path d="" fill="#427FC1" transform="translate(0,0)"/>
<path d="" fill="#4481C2" transform="translate(0,0)"/>
<path d="" fill="#4381BF" transform="translate(0,0)"/>
<path d="" fill="#4380C1" transform="translate(0,0)"/>
<path d="" fill="#4482C7" transform="translate(0,0)"/>
<path d="" fill="#4383C7" transform="translate(0,0)"/>
<path d="" fill="#4080C4" transform="translate(0,0)"/>
<path d="" fill="#4885C7" transform="translate(0,0)"/>
<path d="" fill="#4A86C5" transform="translate(0,0)"/>
<path d="" fill="#4988C6" transform="translate(0,0)"/>
<path d="" fill="#4481C5" transform="translate(0,0)"/>
<path d="" fill="#4784C6" transform="translate(0,0)"/>
<path d="" fill="#4786C6" transform="translate(0,0)"/>
<path d="" fill="#4784C2" transform="translate(0,0)"/>
<path d="" fill="#487FB9" transform="translate(0,0)"/>
<path d="" fill="#4782C3" transform="translate(0,0)"/>
<path d="" fill="#4B86C4" transform="translate(0,0)"/>
<path d="" fill="#4985C6" transform="translate(0,0)"/>
<path d="" fill="#4883C4" transform="translate(0,0)"/>
<path d="" fill="#4A86C6" transform="translate(0,0)"/>
<path d="" fill="#4785C4" transform="translate(0,0)"/>
<path d="" fill="#4786C7" transform="translate(0,0)"/>
<path d="" fill="#4684C5" transform="translate(0,0)"/>
<path d="" fill="#4683C5" transform="translate(0,0)"/>
<path d="" fill="#4784C6" transform="translate(0,0)"/>
<path d="" fill="#4483C5" transform="translate(0,0)"/>
<path d="" fill="#4683C4" transform="translate(0,0)"/>
<path d="" fill="#4884C6" transform="translate(0,0)"/>
<path d="" fill="#4783C6" transform="translate(0,0)"/>
<path d="" fill="#4583C5" transform="translate(0,0)"/>
<path d="" fill="#4784C7" transform="translate(0,0)"/>
<path d="" fill="#4784C6" transform="translate(0,0)"/>
<path d="" fill="#4684C5" transform="translate(0,0)"/>
<path d="" fill="#4781C6" transform="translate(0,0)"/>
<path d="" fill="#4481C4" transform="translate(0,0)"/>
<path d="" fill="#4382C4" transform="translate(0,0)"/>
<path d="" fill="#4480C4" transform="translate(0,0)"/>
<path d="" fill="#4381C4" transform="translate(0,0)"/>
<path d="" fill="#4582C7" transform="translate(0,0)"/>
<path d="" fill="#4681C3" transform="translate(0,0)"/>
<path d="" fill="#4783C6" transform="translate(0,0)"/>
<path d="" fill="#4580C5" transform="translate(0,0)"/>
<path d="" fill="#4883C7" transform="translate(0,0)"/>
<path d="" fill="#4381C4" transform="translate(0,0)"/>
<path d="" fill="#4682C6" transform="translate(0,0)"/>
<path d="" fill="#4483C6" transform="translate(0,0)"/>
<path d="" fill="#4785C6" transform="translate(0,0)"/>
<path d="" fill="#4384C7" transform="translate(0,0)"/>
<path d="" fill="#4481C5" transform="translate(0,0)"/>
<path d="" fill="#4381C3" transform="translate(0,0)"/>
<path d="" fill="#417FC4" transform="translate(0,0)"/>
<path d="" fill="#4584C8" transform="translate(0,0)"/>
<path d="" fill="#4784C8" transform="translate(0,0)"/>
<path d="" fill="#4382C5" transform="translate(0,0)"/>
<path d="" fill="#447FC4" transform="translate(0,0)"/>
<path d="" fill="#4683C5" transform="translate(0,0)"/>
<path d="" fill="#4583C5" transform="translate(0,0)"/>
<path d="" fill="#4381C5" transform="translate(0,0)"/>
<path d="" fill="#4682C5" transform="translate(0,0)"/>
<path d="" fill="#4282C5" transform="translate(0,0)"/>
<path d="" fill="#417EC2" transform="translate(0,0)"/>
<path d="" fill="#4180C2" transform="translate(0,0)"/>
<path d="" fill="#4683C5" transform="translate(0,0)"/>
<path d="" fill="#417EC0" transform="translate(0,0)"/>
</svg>
